<svg width="187" height="95" viewBox="0 0 187 95" fill="none" xmlns="http://www.w3.org/2000/svg">
<path d="M164.55 91.8131C164.55 91.8125 164.55 91.812 164.549 91.8115C164.55 91.8121 164.55 91.8127 164.551 91.8133L164.55 91.8131ZM165.301 91.8105L164.346 92.1073L165.301 91.8105L161.006 77.9922C160.642 76.8206 161.518 75.6316 162.744 75.6316H173.937C180.599 75.6316 186 70.231 186 63.569V24C186 11.2974 175.703 1 163 1H24C11.2974 1 1 11.2974 1 24V52.6316C1 65.3341 11.2974 75.6316 24 75.6316H135.875C141.149 75.6316 146.229 77.6158 150.107 81.1899L162.99 93.0639C163.907 94.1863 165.741 93.2264 165.301 91.8105ZM163.029 93.1C163.029 93.0994 163.028 93.0988 163.027 93.0982L163.029 93.0999L163.029 93.1Z" fill="white" fill-opacity="0.8" stroke="white" stroke-width="2"/>
</svg>
